<svg width="1600" height="900" viewBox="0 0 1600 900" fill="none" xmlns="http://www.w3.org/2000/svg">
  <rect width="1600" height="900" fill="#F0E7DB"/>
  <rect width="1600" height="900" fill="url(#bg)"/>
  <rect x="78" y="84" width="620" height="732" rx="32" fill="#F6F0E7" fill-opacity="0.78" stroke="#867768"/>
  <text x="122" y="178" fill="#2A241F" font-size="82" font-family="Georgia, serif" letter-spacing="2">GITHUB</text>
  <text x="122" y="260" fill="#2A241F" font-size="82" font-family="Georgia, serif" letter-spacing="2">PROFILE</text>
  <text x="122" y="338" fill="#8B5E3C" font-size="24" font-family="'Courier New', monospace">GEO SYSTEMS / FRONTIER AI / OPERATOR TOOLS</text>
  <text x="122" y="432" fill="#50463D" font-size="31" font-family="'Trebuchet MS', sans-serif">A focused public portfolio built around four</text>
  <text x="122" y="474" fill="#50463D" font-size="31" font-family="'Trebuchet MS', sans-serif">high-signal repos and a clear technical story.</text>
  <rect x="122" y="560" width="512" height="118" rx="22" fill="#E8DED0" stroke="#A28D78"/>
  <text x="156" y="620" fill="#2F2721" font-size="26" font-family="'Courier New', monospace">DEFENSE-ADJACENT SOFTWARE + AI INVESTIGATION</text>
  <text x="156" y="658" fill="#6C5D50" font-size="22" font-family="'Courier New', monospace">portfolio front door and featured project map</text>
  <rect x="786" y="110" width="716" height="660" rx="34" fill="#FFF9F2" fill-opacity="0.74" stroke="#9B8A78"/>
  <rect x="834" y="170" width="290" height="206" rx="24" fill="#DCE8EF"/>
  <rect x="1164" y="170" width="290" height="206" rx="24" fill="#E5E0F0"/>
  <rect x="834" y="416" width="290" height="206" rx="24" fill="#E3EDD7"/>
  <rect x="1164" y="416" width="290" height="206" rx="24" fill="#F0E0D8"/>
  <text x="874" y="230" fill="#2A241F" font-size="26" font-family="Georgia, serif">Traffic Cams</text>
  <text x="1206" y="230" fill="#2A241F" font-size="26" font-family="Georgia, serif">Satellite Challenge</text>
  <text x="874" y="476" fill="#2A241F" font-size="26" font-family="Georgia, serif">Symphony</text>
  <text x="1206" y="476" fill="#2A241F" font-size="26" font-family="Georgia, serif">Attractor</text>
  <defs>
    <linearGradient id="bg" x1="111" y1="80" x2="1501" y2="845" gradientUnits="userSpaceOnUse">
      <stop stop-color="#EEE3D5"/>
      <stop offset="0.58" stop-color="#E2D6C8"/>
      <stop offset="1" stop-color="#D5C6B6"/>
    </linearGradient>
  </defs>
</svg>
